<?xml version="1.0" encoding="utf-8"?>
<!-- Generator: Adobe Illustrator 23.0.1, SVG Export Plug-In . SVG Version: 6.00 Build 0)  -->
<svg version="1.1" id="Layer_1" xmlns="http://www.w3.org/2000/svg" x="0px" y="0px"
     viewBox="0 0 32 32" style="enable-background:new 0 0 32 32;" xml:space="preserve">
<g>
	<g id="Group-29">
		<g id="Group-16-Copy-6" transform="translate(3.000000, 3.000000)">
			<path id="Combined-Shape" d="M12,12V8h2v4h4v2h-4v4h-2v-4H8v-2H12z M20,24c2.2091,0,4-1.7909,4-4V6c0-2.2091-1.7909-4-4-4H6
				C3.7909,2,2,3.7909,2,6v14c0,2.2091,1.7909,4,4,4H20z M20,26H6c-3.3137,0-6-2.6863-6-6V6c0-3.3137,2.6863-6,6-6h14
				c3.3137,0,6,2.6863,6,6v14C26,23.3137,23.3137,26,20,26z"/>
		</g>
	</g>
</g>
</svg>
