<?xml version="1.0" encoding="utf-8"?>
<!-- Generator: Adobe Illustrator 23.0.1, SVG Export Plug-In . SVG Version: 6.00 Build 0)  -->
<svg version="1.1" id="Layer_1" xmlns="http://www.w3.org/2000/svg" x="0px" y="0px"
     viewBox="0 0 32 32" style="enable-background:new 0 0 32 32;" xml:space="preserve">
<g>
	<g id="Group-41">
		<g id="Group-40">
			<path id="Combined-Shape" d="M17,21h-2v1h-1v-1h-1v-1h1v-2h-1v-1h1v-1h1v1h2v-1h1v1h1v1h-1v2h1v1h-1v1h-1V21z M17,20v-2h-2v2H17z
				 M26,13H6v-1h20V9c0-1.1046-0.8954-2-2-2h-2v2h-1V7H11v2h-1V7H8C6.8954,7,6,7.8954,6,9v14c0,1.1046,0.8954,2,2,2h16
				c1.1046,0,2-0.8954,2-2V13z M11,6h10V5h1v1h2c1.6569,0,3,1.3431,3,3v14c0,1.6569-1.3431,3-3,3H8c-1.6569,0-3-1.3431-3-3V9
				c0-1.6569,1.3431-3,3-3h2V5h1V6z"/>
		</g>
	</g>
</g>
</svg>
