<?xml version="1.0" encoding="UTF-8"?>
<svg width="8px" height="11px" viewBox="0 0 8 11" version="1.1" xmlns="http://www.w3.org/2000/svg">
    <!-- Generator: Sketch 54.1 (76490) - https://sketchapp.com -->
    <title>ov icon</title>
    <desc>Created with Sketch.</desc>
    <g id="Page-1" stroke="none" stroke-width="1" fill="none" fill-rule="evenodd">
        <g id="medication-active" transform="translate(-140.000000, -278.000000)" fill="#727272" fill-rule="nonzero">
            <path d="M143.592719,278.553695 L144,278 L144.407281,278.553695 C146.803596,281.81147 148,284.03673 148,285.344341 C148,287.370726 146.202017,289 144,289 C141.797983,289 140,287.370726 140,285.344341 C140,284.03673 141.196404,281.81147 143.592719,278.553695 Z M147,285.344341 C147,284.379878 145.999034,282.458621 144,279.675461 C142.000966,282.458621 141,284.379878 141,285.344341 C141,286.821195 142.336023,288.031857 144,288.031857 C145.663977,288.031857 147,286.821195 147,285.344341 Z M145,284.5 C145,284.223858 145.223858,284 145.5,284 C145.776142,284 146,284.223858 146,284.5 C146,286.109476 145.109476,287 143.5,287 C143.223858,287 143,286.776142 143,286.5 C143,286.223858 143.223858,286 143.5,286 C144.557191,286 145,285.557191 145,284.5 Z"
                  id="ov-icon"></path>
        </g>
    </g>
</svg>