<?xml version="1.0" encoding="utf-8"?>
<!-- Generator: Adobe Illustrator 23.0.1, SVG Export Plug-In . SVG Version: 6.00 Build 0)  -->
<svg version="1.1" id="Layer_1" xmlns="http://www.w3.org/2000/svg" x="0px" y="0px"
     viewBox="0 0 24 24" style="enable-background:new 0 0 24 24;" xml:space="preserve">
<g>
	<path class="st0" d="M16.1543,17.916H7.8462C6.8281,17.916,6,17.0879,6,16.0693V7.7617c0-1.0181,0.8281-1.8462,1.8462-1.8462
		h4.5811v1H7.8462C7.3794,6.9155,7,7.2949,7,7.7617v8.3076c0,0.4668,0.3794,0.8467,0.8462,0.8467h8.3081
		c0.4668,0,0.8457-0.3799,0.8457-0.8467v-3.7378h1v3.7378C18,17.0879,17.1719,17.916,16.1543,17.916z"/>
    <path id="Combined-Shape" class="st0" d="M16.7291,8.9087l-1.3829-1.3829l-3.7027,3.7027l-0.2289,1.5478l1.6273-0.1803
		L16.7291,8.9087z M17.4703,8.1674l0.7709-0.7709l-1.3829-1.3829l-0.7709,0.7709L17.4703,8.1674z M18.9824,6.6554
		c0.3819,0.3819,0.3596,1.0233-0.0498,1.4327l-5.4737,5.4737l-3.2278,0.3577l0.462-3.1235l5.4737-5.4737
		c0.4094-0.4094,1.0508-0.4316,1.4327-0.0498L18.9824,6.6554z"/>
</g>
</svg>
