<?xml version="1.0" encoding="utf-8"?>
<!-- Generator: Adobe Illustrator 23.0.1, SVG Export Plug-In . SVG Version: 6.00 Build 0)  -->
<svg version="1.1" id="Layer_1" xmlns="http://www.w3.org/2000/svg" xmlns:xlink="http://www.w3.org/1999/xlink" x="0px" y="0px"
	 viewBox="0 0 32 32" style="enable-background:new 0 0 32 32;" xml:space="preserve">
<g>
	<g id="Group-32">
		<path id="Combined-Shape-Copy-21" d="M26,13.5H6V23c0,1.1046,0.8954,2,2,2h16c1.1046,0,2-0.8954,2-2V13.5z M26,12.5V11
			c0-1.1046-0.8954-2-2-2h-8.844c-0.992,0-1.9486-0.3686-2.6841-1.0343l-0.4956-0.4486C11.6085,7.1843,11.1302,7,10.6342,7H8
			C6.8954,7,6,7.8954,6,9v3.5H26z M9.1842,22.5v-1h5.2105v1H9.1842z M24,26H8c-1.6569,0-3-1.3431-3-3V9c0-1.6569,1.3431-3,3-3
			h2.6342c0.744,0,1.4615,0.2765,2.0131,0.7757l0.4956,0.4486C13.6945,7.7235,14.412,8,15.156,8H24c1.6569,0,3,1.3431,3,3v12
			C27,24.6569,25.6569,26,24,26z"/>
	</g>
</g>
</svg>
