<?xml version="1.0" encoding="utf-8"?>
<!-- Generator: Adobe Illustrator 23.0.1, SVG Export Plug-In . SVG Version: 6.00 Build 0)  -->
<svg version="1.1" id="Layer_1" xmlns="http://www.w3.org/2000/svg" x="0px" y="0px"
     viewBox="0 0 32 32" style="enable-background:new 0 0 32 32;" xml:space="preserve">
<g>
	<g id="Group-39">
		<path id="Combined-Shape-Copy-22" d="M13.5,20.3311C12.0055,19.4666,11,17.8507,11,16v-3c0-1.6569,1.3431-3,3-3h0.0164
			c1.4034,1.9017,3.9424,3.3198,6.9836,3.702V16c0,1.8507-1.0055,3.4666-2.5,4.3311V22.5H23h0.0001l0.0026-8.8016
			C22.7238,9.9129,19.68,7,16.0322,7C12.3714,7,9.3086,9.9055,9,13.6196V22.5h4.5V20.3311z M14.5,20.7711v2.2293
			C14.9261,23.3207,15.4483,23.5,16,23.5s1.0739-0.1793,1.5-0.4996v-2.2293C17.0265,20.9198,16.5226,21,16,21
			C15.4774,21,14.9735,20.9198,14.5,20.7711z M8,22.6449v-9.0254C8.354,9.311,11.8444,6,16.0322,6
			C20.2103,6,23.6831,9.3233,24,13.6249v9.02c1.4457,0.4303,2.5,1.7696,2.5,3.3551h-1c0-1.3807-1.1193-2.5-2.5-2.5h-4.5505
			c-0.6473,0.6347-1.5195,1-2.4495,1s-1.8022-0.3653-2.4495-1H9c-1.3807,0-2.5,1.1193-2.5,2.5h-1
			C5.5,24.4145,6.5543,23.0752,8,22.6449z M12,13v3c0,2.2091,1.7909,4,4,4s4-1.7909,4-4v-1.4446
			c-2.6428-0.5074-4.942-1.7651-6.429-3.5093C12.6726,11.2425,12,12.0427,12,13z"/>
	</g>
</g>
</svg>
