<?xml version="1.0" encoding="utf-8"?>
<!-- Generator: Adobe Illustrator 23.0.1, SVG Export Plug-In . SVG Version: 6.00 Build 0)  -->
<svg version="1.1" id="Layer_1" xmlns="http://www.w3.org/2000/svg" x="0px" y="0px"
     viewBox="0 0 32 32" style="enable-background:new 0 0 32 32;" xml:space="preserve">
<path id="Combined-Shape" d="M20,24.9263V21.5c0-0.8284,0.6716-1.5,1.5-1.5h2.9902c0.0065-0.0655,0.0098-0.1315,0.0098-0.1978V9
	c0-1.1046-0.8954-2-2-2h-13c-1.1046,0-2,0.8954-2,2v14c0,1.1046,0.8954,2,2,2h9.9621C19.6456,25,19.8264,24.9748,20,24.9263z
	 M21,24.2849l2.95-3.1053c0.0543-0.0571,0.1049-0.1172,0.1516-0.1797H21.5c-0.2761,0-0.5,0.2239-0.5,0.5V24.2849z M19.4621,26H9.5
	c-1.6569,0-3-1.3431-3-3V9c0-1.6569,1.3431-3,3-3h13c1.6569,0,3,1.3431,3,3v10.8022c0,0.769-0.2953,1.5087-0.825,2.0662
	l-3.0379,3.1978C21.0707,25.6624,20.2844,26,19.4621,26z M21,11v1H11v-1H21z M21,15v1H11v-1H21z M16,19v1h-5v-1H16z"/>
</svg>
